<svg xmlns="http://www.w3.org/2000/svg" viewBox="0 0 600 600" width="600" height="600" role="img" aria-label="A single Louvion bonbon finished with gold drizzle">
<defs>
<radialGradient id="bg" cx="0.42" cy="0.36" r="0.78">
  <stop offset="0" stop-color="#fdfaf4"/><stop offset="0.6" stop-color="#f7f1e6"/>
  <stop offset="1" stop-color="#ece1cf"/>
</radialGradient>
<filter id="soft" x="-40%" y="-40%" width="180%" height="180%">
  <feGaussianBlur stdDeviation="14"/>
</filter>
<filter id="tight" x="-40%" y="-40%" width="180%" height="180%">
  <feGaussianBlur stdDeviation="5"/>
</filter>
</defs>
<defs>
<radialGradient id="plate" cx="0.4" cy="0.34" r="0.72">
  <stop offset="0" stop-color="#ffffff"/><stop offset="1" stop-color="#e6d9c4"/></radialGradient>
<linearGradient id="dm" x1="0.2" y1="0" x2="0.62" y2="1">
  <stop offset="0" stop-color="#9c6a3e"/><stop offset="0.42" stop-color="#5e3a20"/>
  <stop offset="1" stop-color="#25150b"/></linearGradient>
</defs>
<rect width="600" height="600" fill="url(#bg)"/>
<circle cx="300" cy="296" r="228" fill="url(#plate)"/>
<circle cx="300" cy="296" r="228" fill="none" stroke="#d9cab2" stroke-width="1.5"/>
<ellipse cx="312" cy="448" rx="168" ry="30" fill="#2a1a0e" opacity="0.34" filter="url(#soft)"/>
<path d="M132 436 C132 252 205 168 300 168 C395 168 468 252 468 436 Z" fill="url(#dm)"/>
<ellipse cx="232" cy="262" rx="52" ry="29" fill="#ffffff" opacity="0.20" transform="rotate(-32 232 262)"/>
<ellipse cx="392" cy="330" rx="20" ry="52" fill="#ffffff" opacity="0.07" transform="rotate(12 392 330)"/>
<g fill="none" stroke="#e2c176" stroke-width="15" stroke-linecap="round">
  <path d="M170 296 q42 -36 84 0 t84 0 t84 0"/>
  <path d="M180 350 q42 -36 84 0 t84 0 t76 0"/>
</g>
<g fill="none" stroke="#8d6524" stroke-width="4" stroke-linecap="round" opacity="0.55">
  <path d="M170 302 q42 -36 84 0 t84 0 t84 0"/>
</g>
<ellipse cx="300" cy="436" rx="168" ry="12" fill="#1c1008" opacity="0.35"/>
</svg>
